<svg width="177" height="177" viewBox="0 0 177 177" fill="none" xmlns="http://www.w3.org/2000/svg">
<rect width="177" height="177" fill="none"/>
<g clip-path="url(#clip0_0_1)">
<path d="M58.3891 167.796C55.0575 167.796 51.7256 166.463 49.0603 163.798L11.4112 126.149C8.7459 123.484 7.41306 120.152 7.41306 116.82C7.41306 113.155 8.7459 109.823 11.4112 107.491C14.0766 104.826 17.4085 103.493 20.7401 103.493C24.0717 103.493 27.7368 104.826 30.069 107.491L67.718 145.14C73.0487 150.471 73.0487 158.8 67.718 164.131C65.3858 166.463 61.7207 167.796 58.3891 167.796ZM20.7401 110.157C19.0742 110.157 17.4085 110.823 16.0757 112.156C14.7428 113.489 14.0766 115.154 14.0766 116.82C14.0766 118.486 14.7428 120.152 16.0757 121.485L53.7247 159.134C56.39 161.799 60.3882 161.799 63.0536 159.134C65.7189 156.468 65.7189 152.47 63.0536 149.805L25.4046 112.155C24.0721 110.823 22.4061 110.157 20.7401 110.157Z" fill="white"/>
<path d="M159.675 52.1838C156.343 52.1838 153.011 50.851 150.346 48.1856L126.69 24.8634C121.359 19.5327 121.359 11.2032 126.69 5.87254C132.021 0.541854 140.35 0.541854 145.681 5.87254L169.67 29.8613C174.667 34.8589 174.667 42.8553 169.67 47.8529L169.004 48.5191C166.671 51.1841 163.007 52.1838 159.675 52.1838ZM136.019 8.87066C134.353 8.87066 132.687 9.53691 131.355 10.8698C130.022 12.2026 129.356 13.8682 129.356 15.5342C129.356 17.2002 130.022 18.8658 131.355 20.1986L155.01 43.8543C157.676 46.5197 162.007 46.5197 164.339 43.8543L164.672 43.5212C167.005 41.189 167.005 37.5239 164.672 35.1917L140.683 11.2029C139.684 9.53726 138.018 8.87066 136.019 8.87066Z" fill="black"/>
<path d="M152.678 73.5069C149.013 73.5069 145.681 72.1741 143.349 69.5088L105.367 31.8601C100.036 26.5294 100.036 18.1999 105.367 12.8692C110.698 7.53852 119.027 7.53852 124.358 12.8692L162.007 50.5182C164.672 53.1836 166.005 56.5155 166.005 59.8471C166.005 63.1787 164.672 66.8438 162.007 69.176C159.342 71.5082 156.343 73.5069 152.678 73.5069ZM115.029 15.8677C113.363 15.8677 111.697 16.5339 110.365 17.8668C107.699 20.5321 107.699 24.5303 110.365 27.1957L148.014 64.8447C150.679 67.51 155.01 67.51 157.342 64.8447C158.675 63.5118 159.342 61.8462 159.342 60.1802C159.342 58.5142 158.675 56.8486 157.342 55.5158L119.693 17.8664C118.361 16.5339 116.695 15.8677 115.029 15.8677Z" fill="white"/>
<path d="M159.675 52.1838C156.343 52.1838 153.011 50.851 150.346 48.1856L126.69 24.8634C121.359 19.5327 121.359 11.2032 126.69 5.87254C132.021 0.541854 140.35 0.541854 145.681 5.87254L169.67 29.8613C174.667 34.8589 174.667 42.8553 169.67 47.8529L169.004 48.5191C166.671 51.1841 163.007 52.1838 159.675 52.1838ZM136.019 8.87066C134.353 8.87066 132.687 9.53691 131.355 10.8698C130.022 12.2026 129.356 13.8682 129.356 15.5342C129.356 17.2002 130.022 18.8658 131.355 20.1986L155.01 43.8543C157.676 46.5197 162.007 46.5197 164.339 43.8543L164.672 43.5212C167.005 41.189 167.005 37.5239 164.672 35.1917L140.683 11.2029C139.684 9.53726 138.018 8.87066 136.019 8.87066Z" fill="white"/>
<path d="M20.7401 73.1738C17.4085 73.1738 14.0766 71.841 11.4113 69.1756C6.08057 63.8449 6.08057 55.5154 11.4113 50.1847L49.0603 12.8689C51.7256 10.2035 55.0576 8.87066 58.3892 8.87066C62.0542 8.87066 65.3858 10.2035 67.718 12.8689C70.3834 15.2011 71.7162 18.533 71.7162 22.1977C71.7162 25.8625 70.3834 29.1944 67.718 31.5266L30.069 69.5088C27.4037 71.841 24.0721 73.1738 20.7401 73.1738ZM58.3892 15.5342C56.7232 15.5342 55.0576 16.2004 53.7247 17.5333L16.0757 55.1823C13.4104 57.8477 13.4104 61.8458 16.0757 64.5112C18.741 67.1765 22.7392 67.1765 25.4046 64.5112L63.0536 26.8622C64.3864 25.5293 65.0527 23.8637 65.0527 22.1977C65.0527 20.5318 64.3864 18.8661 63.0536 17.5333C61.7207 16.2004 60.0551 15.5342 58.3892 15.5342Z" fill="white"/>
<path d="M13.7435 52.1838C10.4119 52.1838 7.07996 50.851 4.41461 48.1856C-0.916077 42.855 -0.916077 34.5254 4.41461 29.1948L28.0703 5.53907C33.401 0.208378 41.7305 0.208378 47.0612 5.53907C52.3919 10.8698 52.3919 19.1993 47.0612 24.53L23.4055 48.1856C20.407 50.851 17.0754 52.1838 13.7435 52.1838ZM37.0657 8.53754C35.3997 8.53754 33.7341 9.20379 32.4013 10.5366L9.07905 34.1923C6.41371 36.8577 6.41371 40.8559 9.07905 43.5212C11.7444 46.1865 15.7426 46.1865 18.4079 43.5212L42.0636 19.8655C44.729 17.2002 44.729 13.202 42.0636 10.5366C40.7308 9.20414 39.0648 8.53754 37.0657 8.53754Z" fill="white"/>
<path d="M115.029 167.463C111.364 167.463 108.032 166.13 105.7 163.465C103.368 160.799 101.702 157.467 101.702 154.136C101.702 150.471 103.035 147.139 105.7 144.807L143.349 107.158C148.68 101.827 157.009 101.827 162.34 107.158C167.671 112.488 167.671 120.818 162.34 126.149L124.358 163.465C122.026 166.13 118.361 167.463 115.029 167.463ZM152.678 109.823C151.012 109.823 149.346 110.489 148.014 111.822L110.365 149.471C109.032 150.804 108.366 152.47 108.366 154.136C108.366 155.802 109.032 157.467 110.365 158.8C113.03 161.465 117.361 161.465 119.693 158.8L157.342 121.151C160.008 118.486 160.008 114.488 157.342 111.822C156.01 110.49 154.344 109.823 152.678 109.823Z" fill="white"/>
<path d="M136.019 175.459C133.021 175.459 130.022 174.46 128.023 172.128L126.69 170.795C121.359 165.464 121.359 157.134 126.69 151.804L150.346 128.148C155.676 122.818 164.006 122.818 169.336 128.148L169.67 128.482C174.667 133.479 174.667 141.476 169.67 146.473L144.348 171.794C142.016 174.126 139.018 175.459 136.019 175.459ZM159.675 131.147C158.009 131.147 156.343 131.813 155.01 133.146L131.355 156.801C128.69 159.467 128.69 163.465 131.355 166.13L132.688 167.463C134.687 169.462 137.685 169.462 139.684 167.463L165.006 142.142C167.338 139.81 167.338 136.144 165.006 133.812L164.673 133.479C163.007 131.813 161.341 131.147 159.675 131.147Z" fill="white"/>
<path d="M115.029 144.807L30.069 59.8468L58.3892 31.5266L143.349 116.487L115.029 144.807ZM39.3983 59.8468L114.696 135.145L133.687 116.154L58.3892 41.189L39.3983 59.8468Z" fill="white"/>
<path d="M110.365 93.1644L82.0445 64.8443L115.029 31.8597L143.349 60.1799L110.365 93.1644ZM91.3737 64.8443L110.365 83.8352L133.687 60.513L114.696 41.5221L91.3737 64.8443Z" fill="white"/>
<path d="M58.3892 145.14L30.069 116.82L63.0536 83.8352L91.3737 112.155L58.3892 145.14ZM39.3983 116.82L58.3892 135.811L82.0448 112.155L63.3871 93.1641L39.3983 116.82Z" fill="white"/>
<path d="M37.334 177.164C34.0024 177.164 30.6705 175.831 28.0051 173.165L4.34943 149.843C-0.981262 144.512 -0.981262 136.183 4.34943 130.852C9.68012 125.522 18.0096 125.522 23.3403 130.852L47.3291 154.841C52.3267 159.839 52.3267 167.835 47.3291 172.833L46.6629 173.499C44.3307 176.164 40.6659 177.164 37.334 177.164ZM13.6783 133.85C12.0123 133.85 10.3467 134.517 9.01388 135.849C7.68103 137.182 7.01478 138.848 7.01478 140.514C7.01478 142.18 7.68103 143.846 9.01388 145.178L32.6696 168.834C35.3349 171.499 39.6662 171.499 41.9984 168.834L42.3316 168.501C44.6638 166.169 44.6638 162.504 42.3316 160.171L18.3428 136.183C17.3434 134.517 15.6774 133.85 13.6783 133.85Z" fill="white"/>
</g>
<defs>
<clipPath id="clip0_0_1">
<rect width="177" height="177" fill="white"/>
</clipPath>
</defs>
</svg>
