<svg xmlns="http://www.w3.org/2000/svg" width="140" height="125.89" viewBox="0 0 140 125.89">
<path d="M1079.22,8.05l-26.18,15,.05,39.05-36.44-39.56L989.94,8.06,964.68,22.34v81.21l25.53,14.25,26.2-14.5V96.64l35.58,37.3,52.69-30.42V22.34Zm-23.73,17.8L1080.16,40V91.48l-24.63-26.73Zm-88.36-.7,22.36,12.91,61.63,66.22.02,25.2L989.07,64.4v49.95l-21.94-12.23Zm46.83,69.14v7.58L991.4,114.35V70.46l22.7,23.83Zm88.39,7.84-48.78,28.15-.02-26.95L991.02,36.15,968.36,23.07l21.62-12.23,25.18,13.65,67.45,73.21V38.59l-25.89-14.84,22.57-12.92,23.06,12.92v78.38Z" transform="translate(-964.68 -8.05)" fill="#fff"></path>
</svg>