<svg xmlns="http://www.w3.org/2000/svg" width="121.24" height="139.99" viewBox="0 0 121.24 139.99">
<g transform="translate(-654.16 -1)">
<path d="M775.4,36,754.7,24.05,735.49,35.14V12.95L714.78,1l-20.7,11.95V35.13L674.87,24.04,654.16,36V59.91L673.37,71,654.16,82.09V106l20.7,11.95,19.21-11.09v22.18l20.7,11.95,20.7-11.95V106.86l19.21,11.09L775.4,106V82.09L756.19,71,775.4,59.91ZM754.7,25.77l18.47,10.66L735.61,58.18l-.12-21.32ZM734,37.72l.12,21.33L715.53,69.82V25.34L734,14.68V37.72ZM695.57,14.68l18.46,10.66V69.82L695.57,59.13ZM674.86,25.77l19.21,11.09V58.25L656.4,36.43ZM655.65,59.05V37.73l37.68,21.82L674.87,70.14Zm0,46.09V83.82l18.46,10.66V115.8Zm.75-22.62,18.84-10.87,19.59-11.24L713.29,71.1,674.87,93.18Zm57.63,56.32-18.46-10.66V106l18.46-10.66Zm-18.46-34.56-1.12.65-18.84,10.88V94.49l38.42-22.08V93.62Zm19.21-80.23L696.32,13.39,714.78,2.73l18.46,10.66Zm19.21,104.13-18.46,10.66V95.34L733.99,106Zm19.96-12.38-18.84-10.88-1.12-.65L715.53,93.61h0V72.4l38.42,22.08V115.8Zm19.96-10.66L755.45,115.8V94.3l18.46-10.49Zm-.76-22.62L754.54,93.1,716.27,71.11l18.59-10.77L753.21,71l.62.36.37.22.12.07Zm.76-23.47L754.7,70.14,736.36,59.48l37.56-21.75V59.05Z" fill="#fff"></path>
</g>
</svg>