<svg xmlns="http://www.w3.org/2000/svg" width="149.96" height="140.01" viewBox="0 0 149.96 140.01">
<path d="M.01,100.8a.75.75,0,0,0,.05.16c.01.03.02.07.03.1L11.5,120.82l.03.03c.02.03.04.06.07.1a.688.688,0,0,0,.13.11c.03.02.05.05.08.07h0a.06.06,0,0,0,.04.01.787.787,0,0,0,.37.1H57.36l11.17,19.34.03.03c.02.03.04.06.07.1a.689.689,0,0,0,.13.11c.03.02.05.05.08.07h0a.06.06,0,0,0,.04.01.787.787,0,0,0,.37.1H137.7a.827.827,0,0,0,.38-.1l.09-.06a.883.883,0,0,0,.22-.21c.01-.02.04-.03.05-.05l11.41-19.76c.01-.02.01-.03.02-.05a.417.417,0,0,0,.04-.1c.01-.04.02-.07.03-.11a.41.41,0,0,0,.01-.11c0-.02.01-.03.01-.05s-.01-.03-.01-.05c0-.04-.01-.07-.01-.11s-.02-.07-.03-.11a1.037,1.037,0,0,0-.04-.1c-.01-.02-.01-.03-.02-.05L127.28,80.89l11.16-19.34c.01-.02.01-.03.02-.05a.417.417,0,0,0,.04-.1c.01-.04.02-.07.03-.11a.41.41,0,0,0,.01-.11c0-.02.01-.03.01-.05s-.01-.03-.01-.05c0-.04-.01-.07-.01-.11s-.02-.07-.03-.11a1.037,1.037,0,0,0-.04-.1c-.01-.02-.01-.03-.02-.05L104.23,1.42c-.02-.03-.05-.05-.07-.08a1.5,1.5,0,0,0-.11-.13,1.014,1.014,0,0,0-.13-.09.611.611,0,0,0-.14-.07.951.951,0,0,0-.18-.04c-.03,0-.06-.02-.1-.02H80.68c-.02,0-.03.01-.05.01-.04,0-.07.01-.11.01l-.12.03c-.03.01-.07.03-.1.04s-.03.01-.05.02a.138.138,0,0,1-.04.03.55.55,0,0,0-.09.07.6.6,0,0,0-.08.08c-.02.03-.05.06-.07.09a.138.138,0,0,0-.03.04L57.37,40.51H35.05c-.02,0-.03.01-.05.01-.04,0-.07.01-.11.01s-.08.02-.11.03a1.036,1.036,0,0,0-.1.04c-.02.01-.03.01-.05.02s-.02.02-.04.03a.55.55,0,0,0-.09.07.6.6,0,0,0-.08.08c-.02.03-.05.06-.07.09a.138.138,0,0,0-.03.04L.1,100.22a.381.381,0,0,0-.03.1.983.983,0,0,0-.05.16.468.468,0,0,0-.02.16A.86.86,0,0,0,.01,100.8Zm103-98.11,33.25,57.59H115.4L82.14,2.69ZM114.42,99.8H93.55l21.84-37.84h20.87ZM80.68,3.53l33.25,57.59L92.09,98.96,81.66,80.88,92.83,61.54c.01-.02.01-.03.02-.05a.418.418,0,0,0,.04-.1c.01-.04.02-.07.03-.11a.41.41,0,0,0,.01-.11c0-.02.01-.03.01-.05s-.01-.03-.01-.05c0-.04-.01-.07-.01-.11s-.02-.07-.03-.11a1.037,1.037,0,0,0-.04-.1c-.01-.02-.01-.03-.02-.05L81.41,40.94c-.02-.03-.05-.05-.07-.08a1.5,1.5,0,0,0-.11-.13,1.014,1.014,0,0,0-.13-.09.914.914,0,0,0-.14-.07.508.508,0,0,0-.17-.03c-.03,0-.07-.02-.1-.02H59.33ZM57.87,42.21H80.2L90.64,60.28H46.95L36.51,42.21Zm-22.82.84L45.48,61.12,12.23,118.71,1.8,100.64ZM13.7,119.55,46.95,61.96H90.64L80.2,80.04H57.87c-.02,0-.03.01-.05.01-.04,0-.07.01-.11.01l-.12.03c-.03.01-.07.03-.1.04s-.03.01-.05.02a.138.138,0,0,1-.04.03.549.549,0,0,0-.09.07.6.6,0,0,0-.08.08c-.02.03-.05.06-.07.09-.01.01-.03.02-.03.04L45.72,100.22a.381.381,0,0,0-.03.1.983.983,0,0,0-.05.16.808.808,0,0,0-.01.16.86.86,0,0,0,.01.16.749.749,0,0,0,.05.16c.01.03.02.07.03.1L56.4,119.55H13.7Zm123.54,19.76H70.74l10.43-18.07h66.5Zm-67.96-.84L47.44,100.64,57.88,82.56l21.84,37.83Zm78.39-18.92H81.17L59.33,81.72H80.2l11.17,19.34.03.03a.607.607,0,0,0,.07.1.689.689,0,0,0,.13.11c.03.02.05.05.08.07h0a.06.06,0,0,0,.04.01.787.787,0,0,0,.37.1h22.82a.827.827,0,0,0,.38-.1l.09-.06a.883.883,0,0,0,.22-.21c.01-.02.04-.03.05-.05l10.68-18.5Z" transform="translate(0 -0.99)" fill="#fff"></path>
</svg>