<svg xmlns="http://www.w3.org/2000/svg" width="139.94" height="121.46" viewBox="0 0 139.94 121.46">
<path d="M1721.52,111.67c.01-.01.01-.03.02-.04a.3.3,0,0,0,.04-.1c.01-.03.02-.07.03-.1a.34.34,0,0,0,.01-.1c0-.02.01-.03.01-.05s-.01-.03-.01-.05-.01-.07-.01-.1-.02-.07-.03-.1a.689.689,0,0,0-.04-.1c-.01-.01-.01-.03-.02-.04L1710.3,91.46h22.43a.825.825,0,0,0,.35-.09c.03-.02.05-.04.08-.06a.636.636,0,0,0,.2-.2c.01-.02.03-.03.05-.05l11.36-19.67c.01-.01.01-.03.02-.04a.3.3,0,0,0,.04-.1c.01-.03.02-.07.03-.1a.34.34,0,0,0,.01-.1c0-.02.01-.03.01-.05s-.01-.03-.01-.05-.01-.07-.01-.1-.02-.07-.03-.1a.689.689,0,0,0-.04-.1c-.01-.01-.01-.03-.02-.04l-11.36-19.67a.435.435,0,0,0-.06-.07.6.6,0,0,0-.11-.12,1.462,1.462,0,0,0-.13-.09.517.517,0,0,0-.13-.06.453.453,0,0,0-.16-.03c-.03,0-.06-.02-.09-.02H1710.3l11.22-19.43c.01-.01.01-.03.02-.04a.3.3,0,0,0,.04-.1c.01-.03.02-.07.03-.1a.34.34,0,0,0,.01-.1c0-.02.01-.03.01-.05s-.01-.03-.01-.05-.01-.07-.01-.1-.02-.07-.03-.1a.689.689,0,0,0-.04-.1c-.01-.01-.01-.03-.02-.04l-11.35-19.67a.435.435,0,0,0-.06-.07,1.071,1.071,0,0,0-.1-.12,1.462,1.462,0,0,0-.13-.09.517.517,0,0,0-.13-.06.453.453,0,0,0-.16-.03c-.03,0-.06-.02-.09-.02h-22.71c-.02,0-.03.01-.05.01s-.07.01-.1.01l-.11.03a.353.353,0,0,0-.09.04.06.06,0,0,1-.04.01l-.03.03a.547.547,0,0,0-.08.06.6.6,0,0,0-.08.08c-.02.03-.04.05-.06.08a.138.138,0,0,0-.03.04L1674.9,30.1l-11.22-19.43a.435.435,0,0,0-.06-.07,1.2,1.2,0,0,0-.11-.12.834.834,0,0,0-.12-.08.517.517,0,0,0-.13-.06.415.415,0,0,0-.16-.03c-.03,0-.06-.02-.09-.02H1640.3c-.02,0-.03.01-.05.01s-.07.01-.1.01l-.11.03a.353.353,0,0,0-.09.04.06.06,0,0,1-.04.01.138.138,0,0,1-.04.03.547.547,0,0,0-.08.06.6.6,0,0,0-.08.08c-.02.03-.04.05-.06.08a.138.138,0,0,0-.03.04l-11.35,19.67a.318.318,0,0,0-.03.09.879.879,0,0,0-.05.15,1.129,1.129,0,0,0,0,.3.879.879,0,0,0,.05.15.318.318,0,0,0,.03.09l11.22,19.43h-22.43c-.02,0-.03.01-.05.01s-.07.01-.1.01l-.11.03a.353.353,0,0,0-.09.04c-.01.01-.03.01-.04.02l-.03.03a.547.547,0,0,0-.08.06.6.6,0,0,0-.08.08c-.02.03-.04.05-.06.08a.138.138,0,0,0-.03.04l-11.36,19.67a.318.318,0,0,0-.03.09.879.879,0,0,0-.05.15,1.129,1.129,0,0,0,0,.3.879.879,0,0,0,.05.15.318.318,0,0,0,.03.09l11.36,19.67.03.03a.555.555,0,0,0,.07.09c.04.04.08.07.12.11.03.02.04.05.07.06h0a.06.06,0,0,0,.04.01.825.825,0,0,0,.35.09h22.43l-11.21,19.43a.318.318,0,0,0-.03.09.879.879,0,0,0-.05.15,1.129,1.129,0,0,0,0,.3.879.879,0,0,0,.05.15.318.318,0,0,0,.03.09l11.35,19.67.03.03a.555.555,0,0,0,.07.09c.04.04.08.07.12.11.03.02.04.05.07.06h0a.06.06,0,0,0,.04.01.825.825,0,0,0,.35.09h22.71a.825.825,0,0,0,.35-.09c.03-.02.05-.04.08-.06a.636.636,0,0,0,.2-.2c.01-.02.03-.03.05-.05l11.22-19.43,11.22,19.43.03.03a.555.555,0,0,0,.07.09c.04.04.08.07.12.11.03.02.04.05.07.06h0a.06.06,0,0,0,.04.01.825.825,0,0,0,.35.09h22.71a.825.825,0,0,0,.35-.09c.03-.02.05-.04.08-.06a.636.636,0,0,0,.2-.2c.01-.02.03-.03.05-.05Zm-12.49,18.49h-20.9l10.45-18.1h20.9Zm-46.5,0h-20.9l22.35-38.7h20.9Zm-44.15-40.28,10.45-18.1h44.69l-10.45,18.1Zm-1.36-36.98L1627.47,71l-10.45,18.1L1606.57,71Zm12.8-22.18,10.45-18.1,22.35,38.7-10.45,18.1Zm56.96-18.09,10.45,18.1-22.34,38.7-10.45-18.1Zm22.25-.79,10.45,18.1h-20.9l-10.45-18.1Zm23.26,40.28,10.45,18.1h-44.69l-10.45-18.1h44.69Zm-46.06.78,9.99,17.31h-19.99Zm-12.71,17.31h-19.99l9.99-17.31Zm1.36,2.36,9.99,17.31h-19.99Zm1.36-.78h20.89l22.34,38.7h-20.9Zm22.71,0h43.78l-10.45,18.1h-22.89ZM1687.6,50.54l10.99-19.03h20.9L1708.5,50.54Zm-24.08-.78-21.89-37.92h20.9l11.45,19.82ZM1650.8,70.21h-21.98l-10.45-18.1h21.98Zm11.36,21.25-21.89,37.92-10.45-18.1,11.44-19.82h20.9Zm24.07.78,10.99,19.03-10.45,18.1-10.99-19.04Z" transform="translate(-1604.94 -10.28)" fill="#fff"></path>
</svg>