<svg xmlns="http://www.w3.org/2000/svg" width="140.01" height="121.46" viewBox="0 0 140.01 121.46">
<path d="M324.89,118.48a.882.882,0,0,0,.05.15.318.318,0,0,0,.03.09l7.28,12.62.03.03a.549.549,0,0,0,.07.09c.04.04.08.07.12.11.03.02.04.05.07.06h0a.06.06,0,0,0,.04.01.825.825,0,0,0,.35.09H456.8a.825.825,0,0,0,.35-.09c.03-.02.05-.04.08-.06a.637.637,0,0,0,.2-.2c.01-.02.03-.03.05-.05l7.29-12.62c.01-.01.01-.03.02-.04a.3.3,0,0,0,.04-.1c.01-.03.02-.07.03-.1a.34.34,0,0,0,.01-.1c0-.02.01-.03.01-.05s-.01-.03-.01-.05-.01-.07-.01-.1-.02-.07-.03-.1a.689.689,0,0,0-.04-.1c-.01-.01-.01-.03-.02-.04L402.84,10.66a.435.435,0,0,0-.06-.07.628.628,0,0,0-.11-.12,1.551,1.551,0,0,0-.25-.15.758.758,0,0,0-.16-.03c-.03,0-.06-.02-.1-.02H387.59c-.02,0-.03.01-.05.01s-.07.01-.1.01l-.11.03a.69.69,0,0,0-.1.04.06.06,0,0,1-.04.01.138.138,0,0,1-.04.03.554.554,0,0,0-.08.06.6.6,0,0,0-.08.08c-.02.03-.04.05-.06.08a.138.138,0,0,0-.03.04L324.96,117.94a.318.318,0,0,0-.03.09.879.879,0,0,0-.05.15.756.756,0,0,0-.01.15C324.88,118.38,324.88,118.43,324.89,118.48ZM401.71,11.84l61.03,105.7H356.16l6.38-11.04h79.71a.682.682,0,0,0,.35-.1c.01-.01.03,0,.04-.01a.436.436,0,0,0,.07-.06,1.2,1.2,0,0,0,.12-.11.833.833,0,0,0,.08-.12.31.31,0,0,0,.06-.13.415.415,0,0,0,.03-.16c0-.03.02-.06.02-.1,0-.02-.01-.03-.01-.05a.8.8,0,0,0-.03-.15.882.882,0,0,0-.05-.15c-.01-.01-.01-.03-.02-.04L388.94,11.84h12.77Zm54.65,118.32H334.3l53.29-92.3,6.38,11.04-39.86,69.03a.06.06,0,0,0-.01.04.879.879,0,0,0-.05.15.8.8,0,0,0-.03.15c0,.02-.01.03-.01.05s.02.06.02.1a.9.9,0,0,0,.03.16c.02.05.04.09.06.13a1.249,1.249,0,0,0,.08.12c.04.04.08.07.12.11.03.02.04.05.07.06.01.01.03,0,.04.01a.834.834,0,0,0,.35.1H462.72Zm-30.05-25.23H363.44l31.44-54.45Zm-38.72-92.3,53.29,92.3H428.13L388.28,35.9a.138.138,0,0,1-.03-.04c-.03-.04-.07-.08-.1-.12a.581.581,0,0,0-.12-.1.138.138,0,0,0-.04-.03.318.318,0,0,0-.09-.03.88.88,0,0,0-.15-.05,1.13,1.13,0,0,0-.3,0,.88.88,0,0,0-.15.05.318.318,0,0,0-.09.03.138.138,0,0,1-.04.03c-.04.03-.08.07-.12.1a.378.378,0,0,0-.1.12.138.138,0,0,0-.03.04l-53.97,93.48-6.38-11.04Z" transform="translate(-324.87 -10.27)" fill="#fff"></path>
</svg>