<svg xmlns="http://www.w3.org/2000/svg" width="138.929" height="142" viewBox="0 0 138.929 142">
<path d="M1423.28,49.82a70.041,70.041,0,1,0-18.18,71.58h.03l.57-.57a14.722,14.722,0,0,0-20.82-20.82h0V100a40.556,40.556,0,1,1-1.7-59.54l1.97,1.98a4.964,4.964,0,0,1-7.02,7.02l-2.73-2.74-.1.1a.809.809,0,0,0-.21-.32,30.742,30.742,0,1,0,1.7,47.63,4.975,4.975,0,0,0-.04-6.68c-1.97-2.13-5.34-1.57-7.01-.2a20.92,20.92,0,1,1-.56-32.9l.03-.02,1.77,1.77a14.722,14.722,0,0,0,20.82-20.82l-.22-.22a.889.889,0,0,0-.22-.42,50.369,50.369,0,1,0,.79,72.01.929.929,0,0,1,.05-.1,4.949,4.949,0,0,1,7.35,6.57,60.162,60.162,0,1,1,13.6-62.51c.73,2.03,2.44,4.99,5.93,4.77A4.37,4.37,0,0,0,1423.28,49.82Z" transform="translate(-1285.54)" fill="none" stroke="#fff" stroke-miterlimit="10" stroke-width="2" fill-rule="evenodd"></path>
</svg>