   <svg
              className="fill-current h-8 w-8 mr-2 "
              width="54"
              height="54"
              viewBox="0 0 54 54"
              xmlns="http://www.w3.org/2000/svg"
              fill="white"
            >
              <path d="M27 0C12.088 0 0 12.088 0 27s12.088 27 27 27 27-12.088 27-27S41.912 0 27 0zm0 51C13.745 51 3 40.255 3 27S13.745 3 27 3s24 10.745 24 24-10.745 24-24 24z" />
              <path d="M27 9c-9.374 0-17 7.626-17 17s7.626 17 17 17 17-7.626 17-17-7.626-17-17-17zm0 30c-7.18 0-13-5.82-13-13s5.82-13 13-13 13 5.82 13 13-5.82 13-13 13z" />
              <path d="M27 18c-4.411 0-8 3.589-8 8s3.589 8 8 8 8-3.589 8-8-3.589-8-8-8zm0 13c-2.757 0-5-2.243-5-5s2.243-5 5-5 5 2.243 5 5-2.243 5-5 5z" />
            </svg>